<?xml version="1.0" encoding="UTF-8" standalone="no"?>
<!-- Created with Inkscape (http://www.inkscape.org/) -->

<svg
   xmlns:dc="http://purl.org/dc/elements/1.1/"
   xmlns:cc="http://creativecommons.org/ns#"
   xmlns:rdf="http://www.w3.org/1999/02/22-rdf-syntax-ns#"
   xmlns:svg="http://www.w3.org/2000/svg"
   xmlns="http://www.w3.org/2000/svg"
   xmlns:sodipodi="http://sodipodi.sourceforge.net/DTD/sodipodi-0.dtd"
   xmlns:inkscape="http://www.inkscape.org/namespaces/inkscape"
   width="1600"
   height="400"
   id="svg2"
   version="1.1"
   inkscape:version="0.91 r13725"
   sodipodi:docname="evosus_logo-mixed-white.svg"
   inkscape:export-filename="/home/jyee/Documents/evosus/logo/finals/evosus_logo-mixed.png"
   inkscape:export-xdpi="300"
   inkscape:export-ydpi="300">
  <defs
     id="defs4" />
  <sodipodi:namedview
     id="base"
     pagecolor="#ffffff"
     bordercolor="#666666"
     borderopacity="1.0"
     inkscape:pageopacity="0.0"
     inkscape:pageshadow="2"
     inkscape:zoom="0.7"
     inkscape:cx="605.12647"
     inkscape:cy="-414.13843"
     inkscape:document-units="px"
     inkscape:current-layer="layer1"
     showgrid="false"
     inkscape:window-width="3200"
     inkscape:window-height="1752"
     inkscape:window-x="0"
     inkscape:window-y="48"
     inkscape:window-maximized="1" />
  <metadata
     id="metadata7">
    <rdf:RDF>
      <cc:Work
         rdf:about="">
        <dc:format>image/svg+xml</dc:format>
        <dc:type
           rdf:resource="http://purl.org/dc/dcmitype/StillImage" />
        <dc:title></dc:title>
      </cc:Work>
    </rdf:RDF>
  </metadata>
  <g
     inkscape:label="Layer 1"
     inkscape:groupmode="layer"
     id="layer1"
     transform="translate(0,-652.36218)"
     style="display:inline">
    <path
       inkscape:connector-curvature="0"
       id="path3122"
       style="font-size:359.52038574px;font-style:normal;font-variant:normal;font-weight:300;font-stretch:normal;text-align:start;line-height:125%;letter-spacing:0px;word-spacing:0px;writing-mode:lr-tb;text-anchor:start;fill:#ffffff;fill-opacity:1;stroke:none;font-family:Nunito;-inkscape-font-specification:Nunito Light"
       d="m 96.804355,978.58051 c -1.989582,0 -3.920597,-0.40961 -5.793053,-1.22883 -1.755513,-0.81922 -3.393951,-1.93102 -4.915318,-3.3354 -1.404414,-1.40437 -2.574727,-2.98429 -3.510941,-4.73977 -0.819255,-1.87249 -1.228864,-3.80351 -1.228829,-5.79305 l 0,-220.13602 c -3.5e-5,-1.87226 0.351058,-3.68625 1.053282,-5.44196 0.702152,-1.87226 1.696917,-3.5107 2.9843,-4.91532 1.404336,-1.40413 2.984258,-2.51592 4.739771,-3.33539 1.755425,-0.936 3.686441,-1.40413 5.793053,-1.40438 l 130.95811,0 c 4.32998,2.5e-4 7.54833,1.34611 9.65509,4.03759 2.10637,2.57493 3.15965,5.4422 3.15984,8.6018 -1.9e-4,3.27711 -1.05347,6.26141 -3.15984,8.9529 -2.10676,2.57492 -5.32511,3.86226 -9.65509,3.86204 l -114.80778,0 0,83.38485 109.19027,0 c 4.44702,1.4e-4 7.72389,1.346 9.83064,4.03758 2.10638,2.57483 3.15966,5.4421 3.15985,8.60181 -1.9e-4,3.15997 -1.11199,6.08576 -3.3354,8.77735 -2.10675,2.57481 -5.32511,3.86216 -9.65509,3.86204 l -109.19027,0 0,90.75783 119.7231,0 c 4.32997,3e-5 7.54833,1.34589 9.65509,4.03758 2.10636,2.57471 3.15964,5.44198 3.15984,8.60181 -2e-4,3.27689 -1.05348,6.26118 -3.15984,8.9529 -2.10676,2.57469 -5.32512,3.86204 -9.65509,3.86204 l -134.995695,0" />
    <path
       inkscape:connector-curvature="0"
       id="path3124"
       style="font-size:359.52038574px;font-style:normal;font-variant:normal;font-weight:300;font-stretch:normal;text-align:start;line-height:125%;letter-spacing:0px;word-spacing:0px;writing-mode:lr-tb;text-anchor:start;fill:#ffffff;fill-opacity:1;stroke:none;font-family:Nunito;-inkscape-font-specification:Nunito Light"
       d="m 380.8395,951.7218 0.52664,0 75.13414,-212.93858 c 1.28716,-3.39367 3.21817,-5.96836 5.79306,-7.72407 2.57449,-1.87226 5.38324,-2.80851 8.42625,-2.80876 1.8723,2.5e-4 3.68629,0.35135 5.44196,1.05329 1.75526,0.5854 3.27667,1.46314 4.56423,2.6332 1.40416,1.17056 2.51596,2.57494 3.33539,4.21313 0.819,1.63868 1.22861,3.39415 1.22883,5.26641 -2.2e-4,0.81946 -0.0587,1.58016 -0.17555,2.28211 -0.11725,0.70243 -0.35131,1.52165 -0.70218,2.45766 l -78.64509,213.64078 c -2.34076,7.02189 -5.73467,11.93721 -10.18173,14.74595 -4.44731,2.69173 -9.65521,4.03759 -15.62369,4.03759 -5.50058,0 -10.41589,-1.28735 -14.74595,-3.86204 -4.33026,-2.69172 -7.78268,-7.66554 -10.35728,-14.9215 L 275.33571,747.20948 c -0.3511,-0.70196 -0.58516,-1.46266 -0.70218,-2.28212 -0.11704,-0.81898 -0.17556,-1.57968 -0.17555,-2.28211 -1e-5,-2.10632 0.46812,-4.03734 1.40437,-5.79305 0.93625,-1.75523 2.16507,-3.27663 3.68649,-4.56422 1.5214,-1.40413 3.21835,-2.45741 5.09087,-3.15985 1.98951,-0.70194 3.97904,-1.05303 5.9686,-1.05328 3.04279,2.5e-4 5.79302,0.87798 8.25071,2.6332 2.57466,1.63869 4.44716,4.09634 5.61751,7.37298 L 380.8395,951.7218" />
    <path
       inkscape:connector-curvature="0"
       id="path3129"
       style="font-size:359.52038574px;font-style:normal;font-variant:normal;font-weight:300;font-stretch:normal;text-align:start;line-height:125%;letter-spacing:0px;word-spacing:0px;writing-mode:lr-tb;text-anchor:start;fill:#ffffff;fill-opacity:1;stroke:none;font-family:Nunito;-inkscape-font-specification:Nunito Light"
       d="m 867.71518,789.69189 c -6e-5,7.49018 2.04799,13.98542 6.14415,19.48572 4.09603,5.50064 9.47946,10.18189 16.15033,14.04376 6.78773,3.86219 14.45328,7.19758 22.99666,10.00619 8.54318,2.69186 17.32052,5.4421 26.33206,8.25071 9.94753,3.15998 19.42706,6.55389 28.43863,10.18173 9.12828,3.62809 17.14492,8.19231 24.04994,13.69267 6.90467,5.38355 12.40515,11.99582 16.50145,19.83682 4.0959,7.72415 6.1439,17.32072 6.1441,28.78972 -2e-4,9.71365 -2.3993,18.95912 -7.1974,27.73643 -4.6815,8.66035 -11.2352,16.03332 -19.66128,22.11893 -8.42642,5.96861 -18.37408,10.53283 -29.843,13.69267 -11.46921,3.04282 -23.87452,4.56422 -37.21597,4.56423 -9.59668,-10e-6 -18.6666,-0.87774 -27.2098,-2.63321 -8.54336,-1.63844 -16.44297,-3.92055 -23.69885,-6.84633 -7.256,-3.04281 -13.86827,-6.55375 -19.83682,-10.53283 -5.96864,-3.97905 -11.23504,-8.3092 -15.79924,-12.99048 -0.93627,-0.93622 -1.63846,-1.9895 -2.10656,-3.15985 -0.35112,-1.28731 -0.52666,-2.57465 -0.52664,-3.86203 -2e-5,-1.63841 0.29255,-3.27684 0.87773,-4.91532 0.70217,-1.75543 1.5799,-3.27684 2.63321,-4.56423 1.05325,-1.40432 2.22357,-2.51612 3.51094,-3.33539 1.28731,-0.9362 2.57466,-1.40433 3.86203,-1.40438 2.10654,5e-5 4.2131,0.76076 6.3197,2.28212 2.22355,1.52145 4.38863,3.04286 6.49524,4.56422 3.74496,2.69176 7.84105,5.38348 12.28829,8.07516 4.44714,2.57473 9.36245,4.91535 14.74596,7.02189 5.5004,1.98956 11.46899,3.62799 17.9058,4.91531 6.55366,1.17034 13.75108,1.7555 21.59229,1.75548 8.54317,2e-5 16.50129,-0.87772 23.8744,-2.63321 7.37283,-1.75545 13.75104,-4.38865 19.13463,-7.89962 5.38328,-3.5109 9.59641,-7.89958 12.63939,-13.16603 3.15967,-5.26636 4.7396,-10.88386 4.73977,-16.85252 -1.7e-4,-8.30915 -2.04822,-15.33103 -6.14415,-21.06564 -4.09626,-5.73445 -9.4797,-10.53273 -16.15033,-14.39486 -6.67093,-3.86194 -14.27796,-7.13881 -22.82112,-9.83064 -8.54341,-2.80864 -17.26224,-5.61739 -26.15651,-8.42626 -9.7137,-3.15973 -19.13471,-6.67066 -28.26308,-10.53282 -9.01148,-3.86191 -17.02812,-8.54316 -24.04995,-14.04377 -6.90489,-5.50033 -12.46387,-12.05408 -16.67697,-19.66127 -4.09612,-7.7239 -6.14417,-16.55976 -6.14414,-26.5076 -3e-5,-9.71341 2.39911,-18.72482 7.19743,-27.03425 4.79824,-8.42604 11.17645,-15.50643 19.13463,-21.2412 8.0751,-5.73429 17.32057,-10.06445 27.73643,-12.99048 10.53274,-2.92553 21.47516,-4.38842 32.8273,-4.38868 17.43755,2.6e-4 33.00271,2.75049 46.69552,8.25072 13.80953,5.50071 26.0393,13.92696 36.68932,25.27877 0.9361,1.0535 1.5212,2.22382 1.7555,3.51094 0.3509,1.28756 0.5264,2.69194 0.5266,4.21313 -2e-4,1.28756 -0.2342,2.69193 -0.7022,4.21313 -0.3512,1.52162 -1.0534,2.92599 -2.1065,4.21313 -0.9365,1.17052 -2.1653,2.16528 -3.6865,2.9843 -1.5216,0.81942 -3.33559,1.22903 -5.44197,1.22883 -3.39409,2e-4 -7.19761,-2.10636 -11.41056,-6.31969 -3.74517,-2.80855 -7.72424,-5.50027 -11.9372,-8.07517 -4.09626,-2.6915 -8.60196,-4.97361 -13.51712,-6.84633 -4.91547,-1.98931 -10.18187,-3.56924 -15.79924,-4.73977 -5.61763,-1.17009 -11.70326,-1.75525 -18.25689,-1.75547 -6.55387,2.2e-4 -13.28317,0.76093 -20.18792,2.28211 -6.7879,1.52163 -12.99056,3.86225 -18.60799,7.02188 -5.50054,3.16006 -10.00624,7.25616 -13.51712,12.2883 -3.511,5.03254 -5.26647,10.41598 -5.26641,16.15033" />
    <path
       inkscape:connector-curvature="0"
       id="path3131"
       style="font-size:359.52038574px;font-style:normal;font-variant:normal;font-weight:300;font-stretch:normal;text-align:start;line-height:125%;letter-spacing:0px;word-spacing:0px;writing-mode:lr-tb;text-anchor:start;fill:#ffffff;fill-opacity:1;stroke:none;font-family:Nunito;-inkscape-font-specification:Nunito Light"
       d="m 1067.3122,742.82082 c 0,-2.45742 0.4096,-4.6225 1.2288,-6.49524 0.9362,-1.87226 2.1065,-3.39367 3.511,-4.56423 1.5213,-1.28709 3.2183,-2.22334 5.0908,-2.80875 1.9895,-0.70194 3.979,-1.05303 5.9686,-1.05328 3.862,2.5e-4 7.3729,1.22908 10.5328,3.68649 3.2769,2.4579 4.9153,6.2029 4.9154,11.23501 l 0,147.63508 c -10e-5,11.35212 1.8724,21.18275 5.6175,29.49191 3.8619,8.19224 8.8943,15.03857 15.097,20.539 6.2026,5.38348 13.283,9.42106 21.2412,12.11275 7.958,2.57471 16.0917,3.86206 24.4011,3.86204 8.309,2e-5 16.4427,-1.28733 24.401,-3.86204 7.958,-2.69169 15.0384,-6.72927 21.2412,-12.11275 6.3195,-5.50043 11.3518,-12.34676 15.097,-20.539 3.8619,-8.30916 5.7929,-18.13979 5.7931,-29.49191 l 0,-147.63508 c -2e-4,-2.45742 0.4094,-4.6225 1.2288,-6.49524 0.9361,-1.87226 2.1064,-3.39367 3.511,-4.56423 1.5212,-1.28709 3.2181,-2.22334 5.0908,-2.80875 1.9893,-0.70194 3.9789,-1.05303 5.9686,-1.05328 3.8618,2.5e-4 7.3728,1.22908 10.5328,3.68649 3.2767,2.4579 4.9151,6.2029 4.9154,11.23501 l 0,148.33727 c -3e-4,15.44821 -2.7505,28.84829 -8.2507,40.20028 -5.3837,11.35207 -12.6396,20.83161 -21.7679,28.43862 -9.0116,7.49002 -19.4274,13.10752 -31.2474,16.85252 -11.7033,3.62797 -23.8745,5.44195 -36.5137,5.44196 -12.6396,-10e-6 -24.8693,-1.81399 -36.6894,-5.44196 -11.7032,-3.745 -22.0605,-9.3625 -31.0718,-16.85252 -9.0115,-7.60701 -16.2674,-17.08655 -21.7679,-28.43862 -5.3834,-11.35199 -8.0751,-24.75207 -8.0751,-40.20028 l 0,-148.33727" />
    <path
       inkscape:connector-curvature="0"
       id="path3133"
       style="font-size:359.52038574px;font-style:normal;font-variant:normal;font-weight:300;font-stretch:normal;text-align:start;line-height:125%;letter-spacing:0px;word-spacing:0px;writing-mode:lr-tb;text-anchor:start;fill:#ffffff;fill-opacity:1;stroke:none;font-family:Nunito;-inkscape-font-specification:Nunito Light"
       d="m 1353.6295,789.69189 c -10e-5,7.49018 2.0479,13.98542 6.1441,19.48572 4.096,5.50064 9.4795,10.18189 16.1503,14.04376 6.7878,3.86219 14.4533,7.19758 22.9967,10.00619 8.5432,2.69186 17.3205,5.4421 26.3321,8.25071 9.9475,3.15998 19.427,6.55389 28.4386,10.18173 9.1283,3.62809 17.1449,8.19231 24.0499,13.69267 6.9047,5.38355 12.4052,11.99582 16.5015,19.83682 4.0958,7.72415 6.1439,17.32072 6.1441,28.78972 -2e-4,9.71365 -2.3993,18.95912 -7.1974,27.73643 -4.6815,8.66035 -11.2352,16.03332 -19.6613,22.11893 -8.4264,5.96861 -18.3741,10.53283 -29.843,13.69267 -11.4692,3.04282 -23.8745,4.56422 -37.216,4.56423 -9.5967,-10e-6 -18.6666,-0.87774 -27.2098,-2.63321 -8.5433,-1.63844 -16.4429,-3.92055 -23.6988,-6.84633 -7.256,-3.04281 -13.8683,-6.55375 -19.8368,-10.53283 -5.9687,-3.97905 -11.2351,-8.3092 -15.7993,-12.99048 -0.9363,-0.93622 -1.6384,-1.9895 -2.1065,-3.15985 -0.3512,-1.28731 -0.5267,-2.57465 -0.5267,-3.86203 0,-1.63841 0.2926,-3.27684 0.8777,-4.91532 0.7022,-1.75543 1.5799,-3.27684 2.6333,-4.56423 1.0532,-1.40432 2.2235,-2.51612 3.5109,-3.33539 1.2873,-0.9362 2.5747,-1.40433 3.862,-1.40438 2.1066,5e-5 4.2131,0.76076 6.3197,2.28212 2.2236,1.52145 4.3887,3.04286 6.4953,4.56422 3.7449,2.69176 7.841,5.38348 12.2883,8.07516 4.4471,2.57473 9.3624,4.91535 14.7459,7.02189 5.5004,1.98956 11.469,3.62799 17.9058,4.91531 6.5537,1.17034 13.7511,1.7555 21.5923,1.75548 8.5432,2e-5 16.5013,-0.87772 23.8744,-2.63321 7.3728,-1.75545 13.751,-4.38865 19.1346,-7.89962 5.3833,-3.5109 9.5964,-7.89958 12.6394,-13.16603 3.1597,-5.26636 4.7396,-10.88386 4.7398,-16.85252 -2e-4,-8.30915 -2.0482,-15.33103 -6.1442,-21.06564 -4.0962,-5.73445 -9.4797,-10.53273 -16.1503,-14.39486 -6.6709,-3.86194 -14.2779,-7.13881 -22.8211,-9.83064 -8.5434,-2.80864 -17.2622,-5.61739 -26.1565,-8.42626 -9.7137,-3.15973 -19.1347,-6.67066 -28.2631,-10.53282 -9.0115,-3.86191 -17.0281,-8.54316 -24.0499,-14.04377 -6.9049,-5.50033 -12.4639,-12.05408 -16.677,-19.66127 -4.0961,-7.7239 -6.1442,-16.55976 -6.1442,-26.5076 0,-9.71341 2.3992,-18.72482 7.1975,-27.03425 4.7982,-8.42604 11.1764,-15.50643 19.1346,-21.2412 8.0751,-5.73429 17.3206,-10.06445 27.7364,-12.99048 10.5328,-2.92553 21.4752,-4.38842 32.8273,-4.38868 17.4376,2.6e-4 33.0027,2.75049 46.6956,8.25072 13.8095,5.50071 26.0393,13.92696 36.6893,25.27877 0.936,1.0535 1.5212,2.22382 1.7555,3.51094 0.3509,1.28756 0.5264,2.69194 0.5266,4.21313 -2e-4,1.28756 -0.2343,2.69193 -0.7022,4.21313 -0.3513,1.52162 -1.0535,2.92599 -2.1065,4.21313 -0.9365,1.17052 -2.1653,2.16528 -3.6865,2.9843 -1.5216,0.81942 -3.3356,1.22903 -5.442,1.22883 -3.3941,2e-4 -7.1976,-2.10636 -11.4106,-6.31969 -3.7451,-2.80855 -7.7242,-5.50027 -11.9372,-8.07517 -4.0962,-2.6915 -8.6019,-4.97361 -13.5171,-6.84633 -4.9154,-1.98931 -10.1818,-3.56924 -15.7992,-4.73977 -5.6176,-1.17009 -11.7033,-1.75525 -18.2569,-1.75547 -6.5539,2.2e-4 -13.2832,0.76093 -20.1879,2.28211 -6.7879,1.52163 -12.9906,3.86225 -18.608,7.02188 -5.5006,3.16006 -10.0063,7.25616 -13.5171,12.2883 -3.511,5.03254 -5.2665,10.41598 -5.2664,16.15033" />
    <text
       sodipodi:linespacing="125%"
       id="text4977"
       y="748.22943"
       x="1506.1357"
       style="font-size:32px;font-style:normal;font-variant:normal;font-weight:normal;font-stretch:normal;text-align:start;line-height:125%;letter-spacing:0px;word-spacing:0px;writing-mode:lr-tb;text-anchor:start;fill:#ffffff;fill-opacity:1;stroke:none;font-family:Nunito;-inkscape-font-specification:Nunito;"
       xml:space="preserve"><tspan
         y="748.22943"
         x="1506.1357"
         id="tspan4979"
         sodipodi:role="line">TM</tspan></text>
  </g>
  <g
     inkscape:groupmode="layer"
     id="layer2"
     inkscape:label="orbit"
     style="display:inline">
    <path
       style="color:#000000;fill:#f09419;fill-opacity:1;fill-rule:nonzero;stroke:none;stroke-width:1;marker:none;visibility:visible;display:inline;overflow:visible;enable-background:accumulate"
       d="m 652.53125,75.9375 c -16.20403,0 -31.6866,3.128481 -45.875,8.78125 -24.39072,78.19025 42.6477,177.05647 148.8125,184.34375 13.28382,-19.74883 21.03125,-43.5348 21.03125,-69.125 0,-68.48123 -55.48752,-124 -123.96875,-124 z M 546.25,136.03125 c -11.25264,18.66667 -17.71875,40.52144 -17.71875,63.90625 0,68.48123 55.51877,124 124,124 34.35157,0 65.4191,-13.96403 87.875,-36.53125 C 605.49116,298.87688 546.23756,180.12873 546.25,136.03125 z"
       id="path2990"
       inkscape:connector-curvature="0" />
  </g>
</svg>
