<?xml version="1.0" encoding="utf-8"?>
<!-- Generator: Adobe Illustrator 19.1.0, SVG Export Plug-In . SVG Version: 6.00 Build 0)  -->
<svg version="1.1"
	 id="svg5175" xmlns:sodipodi="http://sodipodi.sourceforge.net/DTD/sodipodi-0.dtd" xmlns:rdf="http://www.w3.org/1999/02/22-rdf-syntax-ns#" xmlns:dc="http://purl.org/dc/elements/1.1/" xmlns:inkscape="http://www.inkscape.org/namespaces/inkscape" xmlns:cc="http://creativecommons.org/ns#" xmlns:svg="http://www.w3.org/2000/svg" sodipodi:docname="evosus_logo_tag-DARK-BG.svg" inkscape:version="0.48.4 r9939"
	 xmlns="http://www.w3.org/2000/svg" xmlns:xlink="http://www.w3.org/1999/xlink" x="0px" y="0px" viewBox="220 -86 600 200"
	 style="enable-background:new 220 -86 600 200;" xml:space="preserve">
<style type="text/css">
	.st0{fill:#444444;}
	.st1{font-family:'Nunito-Regular';}
	.st2{font-size:11.4447px;}
	.st3{fill:#F09419;}
</style>
<g id="layer1" transform="translate(-108.83336,-195.2511)" inkscape:label="Layer 1" inkscape:groupmode="layer">
	<path id="path3072" inkscape:connector-curvature="0" class="st0" d="M379.6,253.8c-0.7,0-1.4-0.1-2.1-0.4
		c-0.6-0.3-1.2-0.7-1.8-1.2c-0.5-0.5-0.9-1.1-1.3-1.7c-0.3-0.7-0.4-1.4-0.4-2.1v-78.7c0-0.7,0.1-1.3,0.4-1.9
		c0.3-0.7,0.6-1.3,1.1-1.8c0.5-0.5,1.1-0.9,1.7-1.2c0.6-0.3,1.3-0.5,2.1-0.5h46.8c1.5,0,2.7,0.5,3.5,1.4c0.8,0.9,1.1,1.9,1.1,3.1
		c0,1.2-0.4,2.2-1.1,3.2c-0.8,0.9-1.9,1.4-3.5,1.4H385v29.8h39.1c1.6,0,2.8,0.5,3.5,1.4c0.8,0.9,1.1,1.9,1.1,3.1
		c0,1.1-0.4,2.2-1.2,3.1c-0.8,0.9-1.9,1.4-3.5,1.4H385v32.5h42.8c1.5,0,2.7,0.5,3.5,1.4c0.8,0.9,1.1,1.9,1.1,3.1
		c0,1.2-0.4,2.2-1.1,3.2c-0.8,0.9-1.9,1.4-3.5,1.4H379.6"/>
	<path id="path3074" inkscape:connector-curvature="0" class="st0" d="M481.2,244.2h0.2l26.9-76.2c0.5-1.2,1.2-2.1,2.1-2.8
		c0.9-0.7,1.9-1,3-1c0.7,0,1.3,0.1,1.9,0.4c0.6,0.2,1.2,0.5,1.6,0.9c0.5,0.4,0.9,0.9,1.2,1.5c0.3,0.6,0.4,1.2,0.4,1.9
		c0,0.3,0,0.6-0.1,0.8c0,0.3-0.1,0.5-0.3,0.9l-28.1,76.4c-0.8,2.5-2.1,4.3-3.6,5.3c-1.6,1-3.5,1.4-5.6,1.4c-2,0-3.7-0.5-5.3-1.4
		c-1.5-1-2.8-2.7-3.7-5.3l-28.4-76c-0.1-0.3-0.2-0.5-0.3-0.8c0-0.3-0.1-0.6-0.1-0.8c0-0.8,0.2-1.4,0.5-2.1c0.3-0.6,0.8-1.2,1.3-1.6
		c0.5-0.5,1.2-0.9,1.8-1.1c0.7-0.3,1.4-0.4,2.1-0.4c1.1,0,2.1,0.3,3,0.9c0.9,0.6,1.6,1.5,2,2.6L481.2,244.2"/>
	<path id="path3079" inkscape:connector-curvature="0" class="st0" d="M655.3,186.3c0,2.7,0.7,5,2.2,7c1.5,2,3.4,3.6,5.8,5
		c2.4,1.4,5.2,2.6,8.2,3.6c3.1,1,6.2,1.9,9.4,3c3.6,1.1,6.9,2.3,10.2,3.6c3.3,1.3,6.1,2.9,8.6,4.9c2.5,1.9,4.4,4.3,5.9,7.1
		c1.5,2.8,2.2,6.2,2.2,10.3c0,3.5-0.9,6.8-2.6,9.9c-1.7,3.1-4,5.7-7,7.9c-3,2.1-6.6,3.8-10.7,4.9c-4.1,1.1-8.5,1.6-13.3,1.6
		c-3.4,0-6.7-0.3-9.7-0.9c-3.1-0.6-5.9-1.4-8.5-2.4c-2.6-1.1-5-2.3-7.1-3.8s-4-3-5.7-4.6c-0.3-0.3-0.6-0.7-0.8-1.1
		c-0.1-0.5-0.2-0.9-0.2-1.4c0-0.6,0.1-1.2,0.3-1.8c0.3-0.6,0.6-1.2,0.9-1.6c0.4-0.5,0.8-0.9,1.3-1.2c0.5-0.3,0.9-0.5,1.4-0.5
		c0.8,0,1.5,0.3,2.3,0.8c0.8,0.5,1.6,1.1,2.3,1.6c1.3,1,2.8,1.9,4.4,2.9c1.6,0.9,3.3,1.8,5.3,2.5c2,0.7,4.1,1.3,6.4,1.8
		c2.3,0.4,4.9,0.6,7.7,0.6c3.1,0,5.9-0.3,8.5-0.9c2.6-0.6,4.9-1.6,6.8-2.8c1.9-1.3,3.4-2.8,4.5-4.7c1.1-1.9,1.7-3.9,1.7-6
		c0-3-0.7-5.5-2.2-7.5c-1.5-2.1-3.4-3.8-5.8-5.1c-2.4-1.4-5.1-2.6-8.2-3.5c-3.1-1-6.2-2-9.4-3c-3.5-1.1-6.8-2.4-10.1-3.8
		c-3.2-1.4-6.1-3.1-8.6-5c-2.5-2-4.5-4.3-6-7c-1.5-2.8-2.2-5.9-2.2-9.5c0-3.5,0.9-6.7,2.6-9.7c1.7-3,4-5.5,6.8-7.6
		c2.9-2.1,6.2-3.6,9.9-4.6c3.8-1,7.7-1.6,11.7-1.6c6.2,0,11.8,1,16.7,3c4.9,2,9.3,5,13.1,9c0.3,0.4,0.5,0.8,0.6,1.3
		c0.1,0.5,0.2,1,0.2,1.5c0,0.5-0.1,1-0.3,1.5c-0.1,0.5-0.4,1-0.8,1.5c-0.3,0.4-0.8,0.8-1.3,1.1c-0.5,0.3-1.2,0.4-1.9,0.4
		c-1.2,0-2.6-0.8-4.1-2.3c-1.3-1-2.8-2-4.3-2.9c-1.5-1-3.1-1.8-4.8-2.4c-1.8-0.7-3.6-1.3-5.7-1.7c-2-0.4-4.2-0.6-6.5-0.6
		c-2.3,0-4.8,0.3-7.2,0.8c-2.4,0.5-4.6,1.4-6.7,2.5c-2,1.1-3.6,2.6-4.8,4.4C655.9,182.3,655.3,184.2,655.3,186.3"/>
	<path id="path3081" inkscape:connector-curvature="0" class="st0" d="M726.7,169.5c0-0.9,0.1-1.7,0.4-2.3c0.3-0.7,0.8-1.2,1.3-1.6
		c0.5-0.5,1.2-0.8,1.8-1c0.7-0.3,1.4-0.4,2.1-0.4c1.4,0,2.6,0.4,3.8,1.3c1.2,0.9,1.8,2.2,1.8,4v52.8c0,4.1,0.7,7.6,2,10.5
		c1.4,2.9,3.2,5.4,5.4,7.3c2.2,1.9,4.8,3.4,7.6,4.3c2.8,0.9,5.8,1.4,8.7,1.4c3,0,5.9-0.5,8.7-1.4c2.8-1,5.4-2.4,7.6-4.3
		c2.3-2,4.1-4.4,5.4-7.3c1.4-3,2.1-6.5,2.1-10.5v-52.8c0-0.9,0.1-1.7,0.4-2.3c0.3-0.7,0.8-1.2,1.3-1.6c0.5-0.5,1.2-0.8,1.8-1
		c0.7-0.3,1.4-0.4,2.1-0.4c1.4,0,2.6,0.4,3.8,1.3c1.2,0.9,1.8,2.2,1.8,4v53.1c0,5.5-1,10.3-3,14.4c-1.9,4.1-4.5,7.5-7.8,10.2
		c-3.2,2.7-6.9,4.7-11.2,6c-4.2,1.3-8.5,1.9-13.1,1.9c-4.5,0-8.9-0.6-13.1-1.9c-4.2-1.3-7.9-3.3-11.1-6c-3.2-2.7-5.8-6.1-7.8-10.2
		c-1.9-4.1-2.9-8.9-2.9-14.4L726.7,169.5"/>
	<path id="path3083" inkscape:connector-curvature="0" class="st0" d="M829.1,186.3c0,2.7,0.7,5,2.2,7c1.5,2,3.4,3.6,5.8,5
		c2.4,1.4,5.2,2.6,8.2,3.6c3.1,1,6.2,1.9,9.4,3c3.6,1.1,6.9,2.3,10.2,3.6c3.3,1.3,6.1,2.9,8.6,4.9c2.5,1.9,4.4,4.3,5.9,7.1
		c1.5,2.8,2.2,6.2,2.2,10.3c0,3.5-0.9,6.8-2.6,9.9c-1.7,3.1-4,5.7-7,7.9c-3,2.1-6.6,3.8-10.7,4.9c-4.1,1.1-8.5,1.6-13.3,1.6
		c-3.4,0-6.7-0.3-9.7-0.9c-3.1-0.6-5.9-1.4-8.5-2.4c-2.6-1.1-5-2.3-7.1-3.8c-2.1-1.4-4-3-5.7-4.6c-0.3-0.3-0.6-0.7-0.8-1.1
		c-0.1-0.5-0.2-0.9-0.2-1.4c0-0.6,0.1-1.2,0.3-1.8c0.3-0.6,0.6-1.2,0.9-1.6c0.4-0.5,0.8-0.9,1.3-1.2c0.5-0.3,0.9-0.5,1.4-0.5
		c0.8,0,1.5,0.3,2.3,0.8c0.8,0.5,1.6,1.1,2.3,1.6c1.3,1,2.8,1.9,4.4,2.9c1.6,0.9,3.3,1.8,5.3,2.5c2,0.7,4.1,1.3,6.4,1.8
		c2.3,0.4,4.9,0.6,7.7,0.6c3.1,0,5.9-0.3,8.5-0.9c2.6-0.6,4.9-1.6,6.8-2.8c1.9-1.3,3.4-2.8,4.5-4.7c1.1-1.9,1.7-3.9,1.7-6
		c0-3-0.7-5.5-2.2-7.5c-1.5-2.1-3.4-3.8-5.8-5.1c-2.4-1.4-5.1-2.6-8.2-3.5c-3.1-1-6.2-2-9.4-3c-3.5-1.1-6.8-2.4-10.1-3.8
		c-3.2-1.4-6.1-3.1-8.6-5c-2.5-2-4.5-4.3-6-7c-1.5-2.8-2.2-5.9-2.2-9.5c0-3.5,0.9-6.7,2.6-9.7c1.7-3,4-5.5,6.8-7.6
		c2.9-2.1,6.2-3.6,9.9-4.6c3.8-1,7.7-1.6,11.7-1.6c6.2,0,11.8,1,16.7,3c4.9,2,9.3,5,13.1,9c0.3,0.4,0.5,0.8,0.6,1.3
		c0.1,0.5,0.2,1,0.2,1.5c0,0.5-0.1,1-0.3,1.5c-0.1,0.5-0.4,1-0.8,1.5c-0.3,0.4-0.8,0.8-1.3,1.1c-0.5,0.3-1.2,0.4-1.9,0.4
		c-1.2,0-2.6-0.8-4.1-2.3c-1.3-1-2.8-2-4.3-2.9c-1.5-1-3.1-1.8-4.8-2.4c-1.8-0.7-3.6-1.3-5.7-1.7c-2-0.4-4.2-0.6-6.5-0.6
		c-2.3,0-4.8,0.3-7.2,0.8c-2.4,0.5-4.6,1.4-6.7,2.5c-2,1.1-3.6,2.6-4.8,4.4C829.7,182.3,829.1,184.2,829.1,186.3"/>
	<text transform="matrix(1 0 0 1 883.6172 171.4433)" class="st0 st1 st2">TM</text>
	<path id="path2990" inkscape:connector-curvature="0" class="st3" d="M578.3,164.3c-5.8,0-11.3,1.1-16.4,3.1
		c-8.7,28,15.3,63.3,53.2,65.9c4.8-7.1,7.5-15.6,7.5-24.7C622.7,184.2,602.8,164.3,578.3,164.3z M540.3,185.8
		c-4,6.7-6.3,14.5-6.3,22.9c0,24.5,19.9,44.3,44.3,44.3c12.3,0,23.4-5,31.4-13.1C561.5,244,540.3,201.6,540.3,185.8z"/>
</g>
</svg>
