<?xml version="1.0" encoding="UTF-8" standalone="no"?>
<svg id="svg2" xmlns:rdf="http://www.w3.org/1999/02/22-rdf-syntax-ns#" xmlns="http://www.w3.org/2000/svg" height="400" width="1600" version="1.1" xmlns:cc="http://creativecommons.org/ns#" xmlns:dc="http://purl.org/dc/elements/1.1/">
 <g id="layer1" transform="translate(0 -652.36)">
  <g id="g3113">
   <g fill="#444">
    <path id="path3122" d="m96.804 978.58c-1.9896 0-3.9206-0.40961-5.7931-1.2288-1.7555-0.81922-3.394-1.931-4.9153-3.3354-1.4044-1.4044-2.5747-2.9843-3.5109-4.7398-0.81926-1.8725-1.2289-3.8035-1.2288-5.793v-220.14c-0.000035-1.8723 0.35106-3.6862 1.0533-5.442 0.70215-1.8723 1.6969-3.5107 2.9843-4.9153 1.4043-1.4041 2.9843-2.5159 4.7398-3.3354 1.7554-0.936 3.6864-1.4041 5.7931-1.4044h130.96c4.33 0.00025 7.5483 1.3461 9.6551 4.0376 2.1064 2.5749 3.1596 5.4422 3.1598 8.6018-0.00019 3.2771-1.0535 6.2614-3.1598 8.9529-2.1068 2.5749-5.3251 3.8623-9.6551 3.862h-114.81v83.385h109.19c4.447 0.00014 7.7239 1.346 9.8306 4.0376 2.1064 2.5748 3.1597 5.4421 3.1598 8.6018-0.00019 3.16-1.112 6.0858-3.3354 8.7774-2.1068 2.5748-5.3251 3.8622-9.6551 3.862h-109.19v90.758h119.72c4.33 0.00003 7.5483 1.3459 9.6551 4.0376 2.1064 2.5747 3.1596 5.442 3.1598 8.6018-0.0002 3.2769-1.0535 6.2612-3.1598 8.9529-2.1068 2.5747-5.3251 3.862-9.6551 3.862h-135"/>
    <path id="path3124" d="m380.84 951.72h0.52664l75.134-212.94c1.2872-3.3937 3.2182-5.9684 5.7931-7.7241 2.5745-1.8723 5.3832-2.8085 8.4262-2.8088 1.8723 0.00025 3.6863 0.35135 5.442 1.0533 1.7553 0.5854 3.2767 1.4631 4.5642 2.6332 1.4042 1.1706 2.516 2.5749 3.3354 4.2131 0.819 1.6387 1.2286 3.3942 1.2288 5.2664-0.00022 0.81946-0.0587 1.5802-0.17555 2.2821-0.11725 0.70243-0.35131 1.5216-0.70218 2.4577l-78.645 213.64c-2.3408 7.0219-5.7347 11.937-10.182 14.746-4.4473 2.6917-9.6552 4.0376-15.624 4.0376-5.5006 0-10.416-1.2874-14.746-3.862-4.3303-2.6917-7.7827-7.6655-10.357-14.922l-79.51-212.58c-0.3511-0.70196-0.58516-1.4627-0.70218-2.2821-0.11704-0.81898-0.17556-1.5797-0.17555-2.2821-0.00001-2.1063 0.46812-4.0373 1.4044-5.793 0.93625-1.7552 2.1651-3.2766 3.6865-4.5642 1.5214-1.4041 3.2184-2.4574 5.0909-3.1598 1.9895-0.70194 3.979-1.053 5.9686-1.0533 3.0428 0.00025 5.793 0.87798 8.2507 2.6332 2.5747 1.6387 4.4472 4.0963 5.6175 7.373l76.36 213.64"/>
    <path id="path3129" d="m867.72 789.69c-0.00006 7.4902 2.048 13.985 6.1442 19.486 4.096 5.5006 9.4795 10.182 16.15 14.044 6.7877 3.8622 14.453 7.1976 22.997 10.006 8.5432 2.6919 17.321 5.4421 26.332 8.2507 9.9475 3.16 19.427 6.5539 28.439 10.182 9.1283 3.6281 17.145 8.1923 24.05 13.693 6.9047 5.3836 12.405 11.996 16.501 19.837 4.0959 7.7242 6.1439 17.321 6.1441 28.79-0.0002 9.7136-2.3993 18.959-7.1974 27.736-4.6815 8.6604-11.235 16.033-19.661 22.119-8.4264 5.9686-18.374 10.533-29.843 13.693-11.469 3.0428-23.875 4.5642-37.216 4.5642-9.5967-0.00001-18.667-0.87774-27.21-2.6332-8.5434-1.6384-16.443-3.9206-23.699-6.8463-7.256-3.0428-13.868-6.5538-19.837-10.533-5.9686-3.979-11.235-8.3092-15.799-12.99-0.93627-0.93622-1.6385-1.9895-2.1066-3.1598-0.35112-1.2873-0.52666-2.5746-0.52664-3.862-0.00002-1.6384 0.29255-3.2768 0.87773-4.9153 0.70217-1.7554 1.5799-3.2768 2.6332-4.5642 1.0532-1.4043 2.2236-2.5161 3.5109-3.3354 1.2873-0.9362 2.5747-1.4043 3.862-1.4044 2.1065 0.00005 4.2131 0.76076 6.3197 2.2821 2.2236 1.5214 4.3886 3.0429 6.4952 4.5642 3.745 2.6918 7.841 5.3835 12.288 8.0752 4.4471 2.5747 9.3624 4.9154 14.746 7.0219 5.5004 1.9896 11.469 3.628 17.906 4.9153 6.5537 1.1703 13.751 1.7555 21.592 1.7555 8.5432 0.00002 16.501-0.87772 23.874-2.6332 7.3728-1.7554 13.751-4.3886 19.135-7.8996 5.3833-3.5109 9.5964-7.8996 12.639-13.166 3.1597-5.2664 4.7396-10.884 4.7398-16.853-0.00017-8.3092-2.0482-15.331-6.1442-21.066-4.0963-5.7344-9.4797-10.533-16.15-14.395-6.6709-3.8619-14.278-7.1388-22.821-9.8306-8.5434-2.8086-17.262-5.6174-26.157-8.4263-9.7137-3.1597-19.135-6.6707-28.263-10.533-9.0115-3.8619-17.028-8.5432-24.05-14.044-6.9049-5.5003-12.464-12.054-16.677-19.661-4.0961-7.7239-6.1442-16.56-6.1441-26.508-0.00003-9.7134 2.3991-18.725 7.1974-27.034 4.7982-8.426 11.176-15.506 19.135-21.241 8.0751-5.7343 17.321-10.064 27.736-12.99 10.533-2.9255 21.475-4.3884 32.827-4.3887 17.438 0.00026 33.003 2.7505 46.696 8.2507 13.81 5.5007 26.039 13.927 36.689 25.279 0.9361 1.0535 1.5212 2.2238 1.7555 3.5109 0.3509 1.2876 0.5264 2.6919 0.5266 4.2131-0.0002 1.2876-0.2342 2.6919-0.7022 4.2131-0.3512 1.5216-1.0534 2.926-2.1065 4.2131-0.9365 1.1705-2.1653 2.1653-3.6865 2.9843-1.5216 0.81942-3.3356 1.229-5.442 1.2288-3.3941 0.0002-7.1976-2.1064-11.411-6.3197-3.7452-2.8086-7.7242-5.5003-11.937-8.0752-4.0963-2.6915-8.602-4.9736-13.517-6.8463-4.9155-1.9893-10.182-3.5692-15.799-4.7398-5.6176-1.1701-11.703-1.7552-18.257-1.7555-6.5539 0.00022-13.283 0.76093-20.188 2.2821-6.7879 1.5216-12.991 3.8622-18.608 7.0219-5.5005 3.1601-10.006 7.2562-13.517 12.288-3.511 5.0325-5.2665 10.416-5.2664 16.15"/>
    <path id="path3131" d="m1067.3 742.82c0-2.4574 0.4096-4.6225 1.2288-6.4952 0.9362-1.8723 2.1065-3.3937 3.511-4.5642 1.5213-1.2871 3.2183-2.2233 5.0908-2.8088 1.9895-0.70194 3.979-1.053 5.9686-1.0533 3.862 0.00025 7.3729 1.2291 10.533 3.6865 3.2769 2.4579 4.9153 6.2029 4.9154 11.235v147.64c-0.0001 11.352 1.8724 21.183 5.6175 29.492 3.8619 8.1922 8.8943 15.039 15.097 20.539 6.2026 5.3835 13.283 9.4211 21.241 12.113 7.958 2.5747 16.092 3.8621 24.401 3.862 8.309 0.00002 16.443-1.2873 24.401-3.862 7.958-2.6917 15.038-6.7293 21.241-12.113 6.3195-5.5004 11.352-12.347 15.097-20.539 3.8619-8.3092 5.7929-18.14 5.7931-29.492v-147.64c-0.0002-2.4574 0.4094-4.6225 1.2288-6.4952 0.9361-1.8723 2.1064-3.3937 3.511-4.5642 1.5212-1.2871 3.2181-2.2233 5.0908-2.8088 1.9893-0.70194 3.9789-1.053 5.9686-1.0533 3.8618 0.00025 7.3728 1.2291 10.533 3.6865 3.2767 2.4579 4.9151 6.2029 4.9154 11.235v148.34c-0.0003 15.448-2.7505 28.848-8.2507 40.2-5.3837 11.352-12.64 20.832-21.768 28.439-9.0116 7.49-19.427 13.108-31.247 16.853-11.703 3.628-23.874 5.442-36.514 5.442-12.64-0.00001-24.869-1.814-36.689-5.442-11.703-3.745-22.06-9.3625-31.072-16.853-9.0115-7.607-16.267-17.087-21.768-28.439-5.3834-11.352-8.0751-24.752-8.0751-40.2v-148.34"/>
    <path id="path3133" d="m1353.6 789.69c-0.0001 7.4902 2.0479 13.985 6.1441 19.486 4.096 5.5006 9.4795 10.182 16.15 14.044 6.7878 3.8622 14.453 7.1976 22.997 10.006 8.5432 2.6919 17.32 5.4421 26.332 8.2507 9.9475 3.16 19.427 6.5539 28.439 10.182 9.1283 3.6281 17.145 8.1923 24.05 13.693 6.9047 5.3836 12.405 11.996 16.502 19.837 4.0958 7.7242 6.1439 17.321 6.1441 28.79-0.0002 9.7136-2.3993 18.959-7.1974 27.736-4.6815 8.6604-11.235 16.033-19.661 22.119-8.4264 5.9686-18.374 10.533-29.843 13.693-11.469 3.0428-23.874 4.5642-37.216 4.5642-9.5967-0.00001-18.667-0.87774-27.21-2.6332-8.5433-1.6384-16.443-3.9206-23.699-6.8463-7.256-3.0428-13.868-6.5538-19.837-10.533-5.9687-3.979-11.235-8.3092-15.799-12.99-0.9363-0.93622-1.6384-1.9895-2.1065-3.1598-0.3512-1.2873-0.5267-2.5746-0.5267-3.862 0-1.6384 0.2926-3.2768 0.8777-4.9153 0.7022-1.7554 1.5799-3.2768 2.6333-4.5642 1.0532-1.4043 2.2235-2.5161 3.5109-3.3354 1.2873-0.9362 2.5747-1.4043 3.862-1.4044 2.1066 0.00005 4.2131 0.76076 6.3197 2.2821 2.2236 1.5214 4.3887 3.0429 6.4953 4.5642 3.7449 2.6918 7.841 5.3835 12.288 8.0752 4.4471 2.5747 9.3624 4.9154 14.746 7.0219 5.5004 1.9896 11.469 3.628 17.906 4.9153 6.5537 1.1703 13.751 1.7555 21.592 1.7555 8.5432 0.00002 16.501-0.87772 23.874-2.6332 7.3728-1.7554 13.751-4.3886 19.135-7.8996 5.3833-3.5109 9.5964-7.8996 12.639-13.166 3.1597-5.2664 4.7396-10.884 4.7398-16.853-0.0002-8.3092-2.0482-15.331-6.1442-21.066-4.0962-5.7344-9.4797-10.533-16.15-14.395-6.6709-3.8619-14.278-7.1388-22.821-9.8306-8.5434-2.8086-17.262-5.6174-26.156-8.4263-9.7137-3.1597-19.135-6.6707-28.263-10.533-9.0115-3.8619-17.028-8.5432-24.05-14.044-6.9049-5.5003-12.464-12.054-16.677-19.661-4.0961-7.7239-6.1442-16.56-6.1442-26.508 0-9.7134 2.3992-18.725 7.1975-27.034 4.7982-8.426 11.176-15.506 19.135-21.241 8.0751-5.7343 17.321-10.064 27.736-12.99 10.533-2.9255 21.475-4.3884 32.827-4.3887 17.438 0.00026 33.003 2.7505 46.696 8.2507 13.81 5.5007 26.039 13.927 36.689 25.279 0.936 1.0535 1.5212 2.2238 1.7555 3.5109 0.3509 1.2876 0.5264 2.6919 0.5266 4.2131-0.0002 1.2876-0.2343 2.6919-0.7022 4.2131-0.3513 1.5216-1.0535 2.926-2.1065 4.2131-0.9365 1.1705-2.1653 2.1653-3.6865 2.9843-1.5216 0.81942-3.3356 1.229-5.442 1.2288-3.3941 0.0002-7.1976-2.1064-11.411-6.3197-3.7451-2.8086-7.7242-5.5003-11.937-8.0752-4.0962-2.6915-8.6019-4.9736-13.517-6.8463-4.9154-1.9893-10.182-3.5692-15.799-4.7398-5.6176-1.1701-11.703-1.7552-18.257-1.7555-6.5539 0.00022-13.283 0.76093-20.188 2.2821-6.7879 1.5216-12.991 3.8622-18.608 7.0219-5.5006 3.1601-10.006 7.2562-13.517 12.288-3.511 5.0325-5.2665 10.416-5.2664 16.15"/>
    <path id="path3107" d="m1508.1 728.92c-0.2709 0.00002-0.5105-0.0417-0.7188-0.125-0.1979-0.0937-0.3646-0.21352-0.5-0.35937-0.125-0.14582-0.2239-0.31248-0.2969-0.5-0.062-0.18748-0.094-0.38019-0.094-0.57813 0-0.19789 0.031-0.3906 0.094-0.57812 0.073-0.1979 0.1771-0.36977 0.3125-0.51563 0.1355-0.14581 0.3021-0.2656 0.5-0.35937 0.198-0.0937 0.4323-0.14061 0.7032-0.14063h14.766c0.2604 0.00002 0.4896 0.0469 0.6875 0.14063 0.1979 0.0938 0.3646 0.21356 0.5 0.35937 0.1354 0.14586 0.2343 0.31252 0.2969 0.5 0.073 0.18752 0.1093 0.38023 0.1093 0.57813 0 0.19793-0.036 0.39064-0.1093 0.57812-0.063 0.18752-0.1615 0.3594-0.2969 0.51563-0.125 0.14585-0.2917 0.26564-0.5 0.35937-0.1979 0.0833-0.4271 0.12502-0.6875 0.125h-5.25v17.297c0 0.33333-0.062 0.63021-0.1875 0.89062-0.1146 0.25-0.2709 0.46354-0.4688 0.64063-0.1979 0.16666-0.4218 0.29166-0.6718 0.375-0.25 0.0833-0.5053 0.125-0.7657 0.125s-0.5156-0.0417-0.7656-0.125-0.4739-0.20834-0.6719-0.375c-0.1979-0.17709-0.3593-0.39063-0.4843-0.64063-0.1146-0.26041-0.1719-0.55729-0.1719-0.89062v-17.297h-5.3281"/>
    <path id="path3109" d="m1540.5 743.14 6.3282-14.328c0.2395-0.59373 0.4791-1.0833 0.7187-1.4688 0.2396-0.39582 0.4948-0.70832 0.7656-0.9375 0.2709-0.23957 0.5625-0.40623 0.875-0.5 0.3229-0.0937 0.6875-0.14061 1.0938-0.14063 0.3958 0.00002 0.7708 0.0625 1.125 0.1875 0.3645 0.12502 0.6823 0.32294 0.9531 0.59375 0.2812 0.27086 0.5 0.61981 0.6563 1.0469 0.1666 0.4271 0.2499 0.94272 0.25 1.5469v17.281c-0.0001 0.30209-0.052 0.56771-0.1563 0.79688-0.094 0.21875-0.224 0.40625-0.3906 0.5625-0.1667 0.14583-0.3594 0.26041-0.5781 0.34375-0.2084 0.0729-0.4219 0.10937-0.6407 0.10937-0.2187 0-0.4323-0.0365-0.6406-0.10937-0.1979-0.0833-0.3802-0.19792-0.5469-0.34375-0.1666-0.15625-0.3021-0.34375-0.4062-0.5625-0.094-0.22917-0.1407-0.49479-0.1406-0.79688v-16.625l-6.9219 15.891c-0.1042 0.29167-0.2448 0.54687-0.4219 0.76562-0.1667 0.21875-0.3594 0.40625-0.5781 0.5625-0.2188 0.14584-0.4531 0.26042-0.7031 0.34375-0.2396 0.0729-0.4844 0.10938-0.7344 0.10938-0.4792 0-0.9375-0.14063-1.375-0.42188-0.4271-0.29166-0.75-0.74479-0.9688-1.3594l-6.9062-15.797v16.531c0 0.30209-0.052 0.56771-0.1563 0.79688-0.094 0.21875-0.2239 0.40625-0.3906 0.5625-0.1667 0.14583-0.3542 0.26041-0.5625 0.34375-0.2083 0.0729-0.4219 0.10937-0.6406 0.10937-0.2188 0-0.4323-0.0365-0.6406-0.10937-0.2084-0.0833-0.3959-0.19792-0.5625-0.34375-0.1563-0.15625-0.2865-0.34375-0.3907-0.5625-0.094-0.22917-0.1406-0.49479-0.1406-0.79688v-17.281c0-0.60415 0.078-1.1198 0.2344-1.5469 0.1667-0.42707 0.3906-0.77602 0.6719-1.0469 0.2812-0.27081 0.6041-0.46873 0.9687-0.59375 0.3646-0.12498 0.75-0.18748 1.1563-0.1875 0.4062 0.00002 0.7708 0.0521 1.0937 0.15625 0.3229 0.0938 0.6198 0.26044 0.8906 0.5 0.2813 0.22919 0.5417 0.54169 0.7813 0.9375 0.2396 0.39585 0.4791 0.89065 0.7187 1.4844l6.2188 14.297h0.094"/>
   </g>
   <path id="path2990" style="color:#000000" d="m652.53 728.3c-16.204 0-31.687 3.1285-45.875 8.7812-24.391 78.19 42.648 177.06 148.81 184.34 13.284-19.749 21.031-43.535 21.031-69.125 0-68.481-55.488-124-123.97-124zm-106.28 60.09c-11.253 18.667-17.719 40.521-17.719 63.906 0 68.481 55.519 124 124 124 34.352 0 65.419-13.964 87.875-36.531-134.92 11.47-194.17-107.28-194.16-151.38z" fill="#f89522"/>
  </g>
 </g>
</svg>
