<?xml version="1.0" encoding="utf-8"?>
<!-- Generator: Adobe Illustrator 19.1.0, SVG Export Plug-In . SVG Version: 6.00 Build 0)  -->
<svg version="1.1"
	 id="svg2" xmlns:sodipodi="http://sodipodi.sourceforge.net/DTD/sodipodi-0.dtd" xmlns:rdf="http://www.w3.org/1999/02/22-rdf-syntax-ns#" xmlns:dc="http://purl.org/dc/elements/1.1/" xmlns:inkscape="http://www.inkscape.org/namespaces/inkscape" xmlns:cc="http://creativecommons.org/ns#" xmlns:svg="http://www.w3.org/2000/svg" inkscape:export-ydpi="300" inkscape:export-xdpi="300" inkscape:export-filename="/home/jyee/Documents/evosus/logo/finals/evosus_logo-mixed.png" sodipodi:docname="evosus_logo-flat.svg" inkscape:version="0.48.4 r9939"
	 xmlns="http://www.w3.org/2000/svg" xmlns:xlink="http://www.w3.org/1999/xlink" x="0px" y="0px" viewBox="723 -186 1600 400"
	 style="enable-background:new 723 -186 1600 400;" xml:space="preserve">
<style type="text/css">
	.st0{fill:#FFFFFF;}
	.st1{font-family:'Nunito-Regular';}
	.st2{font-size:32px;}
	.st3{fill:#F89522;}
</style>
<circle class="st0" cx="1369.7" cy="18.6" r="135.8"/>
<g id="layer1" transform="translate(0,-652.36218)" inkscape:label="Layer 1" inkscape:groupmode="layer">
	<path id="path3072" inkscape:connector-curvature="0" class="st0" d="M819.8,792.6c-2,0-3.9-0.4-5.8-1.2c-1.8-0.8-3.4-1.9-4.9-3.3
		c-1.4-1.4-2.6-3-3.5-4.7c-0.8-1.9-1.2-3.8-1.2-5.8V557.3c0-1.9,0.4-3.7,1.1-5.4c0.7-1.9,1.7-3.5,3-4.9c1.4-1.4,3-2.5,4.7-3.3
		c1.8-0.9,3.7-1.4,5.8-1.4h131c4.3,0,7.5,1.3,9.7,4c2.1,2.6,3.2,5.4,3.2,8.6c0,3.3-1.1,6.3-3.2,9c-2.1,2.6-5.3,3.9-9.7,3.9H835.1
		v83.4h109.2c4.4,0,7.7,1.3,9.8,4c2.1,2.6,3.2,5.4,3.2,8.6c0,3.2-1.1,6.1-3.3,8.8c-2.1,2.6-5.3,3.9-9.7,3.9H835.1v90.8h119.7
		c4.3,0,7.5,1.3,9.7,4c2.1,2.6,3.2,5.4,3.2,8.6c0,3.3-1.1,6.3-3.2,9c-2.1,2.6-5.3,3.9-9.7,3.9L819.8,792.6"/>
	<path id="path3074" inkscape:connector-curvature="0" class="st0" d="M1103.8,765.7h0.5l75.1-212.9c1.3-3.4,3.2-6,5.8-7.7
		c2.6-1.9,5.4-2.8,8.4-2.8c1.9,0,3.7,0.4,5.4,1.1c1.8,0.6,3.3,1.5,4.6,2.6c1.4,1.2,2.5,2.6,3.3,4.2c0.8,1.6,1.2,3.4,1.2,5.3
		c0,0.8-0.1,1.6-0.2,2.3c-0.1,0.7-0.4,1.5-0.7,2.5l-78.6,213.6c-2.3,7-5.7,11.9-10.2,14.7c-4.4,2.7-9.7,4-15.6,4
		c-5.5,0-10.4-1.3-14.7-3.9c-4.3-2.7-7.8-7.7-10.4-14.9l-79.5-212.6c-0.4-0.7-0.6-1.5-0.7-2.3c-0.1-0.8-0.2-1.6-0.2-2.3
		c0-2.1,0.5-4,1.4-5.8c0.9-1.8,2.2-3.3,3.7-4.6c1.5-1.4,3.2-2.5,5.1-3.2c2-0.7,4-1.1,6-1.1c3,0,5.8,0.9,8.3,2.6
		c2.6,1.6,4.4,4.1,5.6,7.4L1103.8,765.7"/>
	<path id="path3079" inkscape:connector-curvature="0" class="st0" d="M1590.7,603.7c0,7.5,2,14,6.1,19.5c4.1,5.5,9.5,10.2,16.2,14
		c6.8,3.9,14.5,7.2,23,10c8.5,2.7,17.3,5.4,26.3,8.3c9.9,3.2,19.4,6.6,28.4,10.2c9.1,3.6,17.1,8.2,24,13.7
		c6.9,5.4,12.4,12,16.5,19.8c4.1,7.7,6.1,17.3,6.1,28.8c0,9.7-2.4,19-7.2,27.7c-4.7,8.7-11.2,16-19.7,22.1
		c-8.4,6-18.4,10.5-29.8,13.7c-11.5,3-23.9,4.6-37.2,4.6c-9.6,0-18.7-0.9-27.2-2.6c-8.5-1.6-16.4-3.9-23.7-6.8
		c-7.3-3-13.9-6.6-19.8-10.5c-6-4-11.2-8.3-15.8-13c-0.9-0.9-1.6-2-2.1-3.2c-0.4-1.3-0.5-2.6-0.5-3.9c0-1.6,0.3-3.3,0.9-4.9
		c0.7-1.8,1.6-3.3,2.6-4.6c1.1-1.4,2.2-2.5,3.5-3.3c1.3-0.9,2.6-1.4,3.9-1.4c2.1,0,4.2,0.8,6.3,2.3c2.2,1.5,4.4,3,6.5,4.6
		c3.7,2.7,7.8,5.4,12.3,8.1c4.4,2.6,9.4,4.9,14.7,7c5.5,2,11.5,3.6,17.9,4.9c6.6,1.2,13.8,1.8,21.6,1.8c8.5,0,16.5-0.9,23.9-2.6
		c7.4-1.8,13.8-4.4,19.1-7.9c5.4-3.5,9.6-7.9,12.6-13.2c3.2-5.3,4.7-10.9,4.7-16.9c0-8.3-2-15.3-6.1-21.1
		c-4.1-5.7-9.5-10.5-16.2-14.4c-6.7-3.9-14.3-7.1-22.8-9.8c-8.5-2.8-17.3-5.6-26.2-8.4c-9.7-3.2-19.1-6.7-28.3-10.5
		c-9-3.9-17-8.5-24-14c-6.9-5.5-12.5-12.1-16.7-19.7c-4.1-7.7-6.1-16.6-6.1-26.5c0-9.7,2.4-18.7,7.2-27c4.8-8.4,11.2-15.5,19.1-21.2
		c8.1-5.7,17.3-10.1,27.7-13c10.5-2.9,21.5-4.4,32.8-4.4c17.4,0,33,2.8,46.7,8.3c13.8,5.5,26,13.9,36.7,25.3
		c0.9,1.1,1.5,2.2,1.8,3.5c0.4,1.3,0.5,2.7,0.5,4.2c0,1.3-0.2,2.7-0.7,4.2c-0.4,1.5-1.1,2.9-2.1,4.2c-0.9,1.2-2.2,2.2-3.7,3
		c-1.5,0.8-3.3,1.2-5.4,1.2c-3.4,0-7.2-2.1-11.4-6.3c-3.7-2.8-7.7-5.5-11.9-8.1c-4.1-2.7-8.6-5-13.5-6.8c-4.9-2-10.2-3.6-15.8-4.7
		c-5.6-1.2-11.7-1.8-18.3-1.8c-6.6,0-13.3,0.8-20.2,2.3c-6.8,1.5-13,3.9-18.6,7c-5.5,3.2-10,7.3-13.5,12.3
		C1592.5,592.6,1590.7,598,1590.7,603.7"/>
	<path id="path3081" inkscape:connector-curvature="0" class="st0" d="M1790.3,556.8c0-2.5,0.4-4.6,1.2-6.5c0.9-1.9,2.1-3.4,3.5-4.6
		c1.5-1.3,3.2-2.2,5.1-2.8c2-0.7,4-1.1,6-1.1c3.9,0,7.4,1.2,10.5,3.7c3.3,2.5,4.9,6.2,4.9,11.2v147.6c0,11.4,1.9,21.2,5.6,29.5
		c3.9,8.2,8.9,15,15.1,20.5c6.2,5.4,13.3,9.4,21.2,12.1c8,2.6,16.1,3.9,24.4,3.9c8.3,0,16.4-1.3,24.4-3.9c8-2.7,15-6.7,21.2-12.1
		c6.3-5.5,11.4-12.3,15.1-20.5c3.9-8.3,5.8-18.1,5.8-29.5V556.8c0-2.5,0.4-4.6,1.2-6.5c0.9-1.9,2.1-3.4,3.5-4.6
		c1.5-1.3,3.2-2.2,5.1-2.8c2-0.7,4-1.1,6-1.1c3.9,0,7.4,1.2,10.5,3.7c3.3,2.5,4.9,6.2,4.9,11.2v148.3c0,15.4-2.8,28.8-8.3,40.2
		c-5.4,11.4-12.6,20.8-21.8,28.4c-9,7.5-19.4,13.1-31.2,16.9c-11.7,3.6-23.9,5.4-36.5,5.4c-12.6,0-24.9-1.8-36.7-5.4
		c-11.7-3.7-22.1-9.4-31.1-16.9c-9-7.6-16.3-17.1-21.8-28.4c-5.4-11.4-8.1-24.8-8.1-40.2L1790.3,556.8"/>
	<path id="path3083" inkscape:connector-curvature="0" class="st0" d="M2076.6,603.7c0,7.5,2,14,6.1,19.5c4.1,5.5,9.5,10.2,16.2,14
		c6.8,3.9,14.5,7.2,23,10c8.5,2.7,17.3,5.4,26.3,8.3c9.9,3.2,19.4,6.6,28.4,10.2c9.1,3.6,17.1,8.2,24,13.7
		c6.9,5.4,12.4,12,16.5,19.8c4.1,7.7,6.1,17.3,6.1,28.8c0,9.7-2.4,19-7.2,27.7c-4.7,8.7-11.2,16-19.7,22.1
		c-8.4,6-18.4,10.5-29.8,13.7c-11.5,3-23.9,4.6-37.2,4.6c-9.6,0-18.7-0.9-27.2-2.6c-8.5-1.6-16.4-3.9-23.7-6.8
		c-7.3-3-13.9-6.6-19.8-10.5c-6-4-11.2-8.3-15.8-13c-0.9-0.9-1.6-2-2.1-3.2c-0.4-1.3-0.5-2.6-0.5-3.9c0-1.6,0.3-3.3,0.9-4.9
		c0.7-1.8,1.6-3.3,2.6-4.6c1.1-1.4,2.2-2.5,3.5-3.3c1.3-0.9,2.6-1.4,3.9-1.4c2.1,0,4.2,0.8,6.3,2.3c2.2,1.5,4.4,3,6.5,4.6
		c3.7,2.7,7.8,5.4,12.3,8.1c4.4,2.6,9.4,4.9,14.7,7c5.5,2,11.5,3.6,17.9,4.9c6.6,1.2,13.8,1.8,21.6,1.8c8.5,0,16.5-0.9,23.9-2.6
		c7.4-1.8,13.8-4.4,19.1-7.9c5.4-3.5,9.6-7.9,12.6-13.2c3.2-5.3,4.7-10.9,4.7-16.9c0-8.3-2-15.3-6.1-21.1
		c-4.1-5.7-9.5-10.5-16.2-14.4c-6.7-3.9-14.3-7.1-22.8-9.8c-8.5-2.8-17.3-5.6-26.2-8.4c-9.7-3.2-19.1-6.7-28.3-10.5
		c-9-3.9-17-8.5-24.1-14c-6.9-5.5-12.5-12.1-16.7-19.7c-4.1-7.7-6.1-16.6-6.1-26.5c0-9.7,2.4-18.7,7.2-27
		c4.8-8.4,11.2-15.5,19.1-21.2c8.1-5.7,17.3-10.1,27.7-13c10.5-2.9,21.5-4.4,32.8-4.4c17.4,0,33,2.8,46.7,8.3
		c13.8,5.5,26,13.9,36.7,25.3c0.9,1.1,1.5,2.2,1.8,3.5c0.4,1.3,0.5,2.7,0.5,4.2c0,1.3-0.2,2.7-0.7,4.2c-0.4,1.5-1.1,2.9-2.1,4.2
		c-0.9,1.2-2.2,2.2-3.7,3c-1.5,0.8-3.3,1.2-5.4,1.2c-3.4,0-7.2-2.1-11.4-6.3c-3.7-2.8-7.7-5.5-11.9-8.1c-4.1-2.7-8.6-5-13.5-6.8
		c-4.9-2-10.2-3.6-15.8-4.7c-5.6-1.2-11.7-1.8-18.3-1.8c-6.6,0-13.3,0.8-20.2,2.3c-6.8,1.5-13,3.9-18.6,7c-5.5,3.2-10,7.3-13.5,12.3
		C2078.4,592.6,2076.6,598,2076.6,603.7"/>
	<text transform="matrix(1 0 0 1 2229.1357 562.2294)" class="st0 st1 st2">TM</text>
</g>
<g id="layer2" inkscape:label="orbit" inkscape:groupmode="layer">
	<path id="path2990" inkscape:connector-curvature="0" class="st3" d="M1369.7-105.4c-16.2,0-31.7,3.1-45.9,8.8
		c-24.4,78.2,42.6,177.1,148.8,184.3c13.3-19.7,21-43.5,21-69.1C1493.6-49.9,1438.1-105.4,1369.7-105.4z M1263.4-45.3
		c-11.3,18.7-17.7,40.5-17.7,63.9c0,68.5,55.5,124,124,124c34.4,0,65.4-14,87.9-36.5C1322.6,117.5,1263.4-1.2,1263.4-45.3z"/>
</g>
</svg>
